<?xml version="1.0" encoding="UTF-8" standalone="no"?>
<!-- Created with Inkscape (http://www.inkscape.org/) -->

<svg
   version="1.1"
   id="svg2"
   width="646.66669"
   height="568"
   viewBox="0 0 646.66669 568"
   sodipodi:docname="svg-seeklogo.eps"
   xmlns:inkscape="http://www.inkscape.org/namespaces/inkscape"
   xmlns:sodipodi="http://sodipodi.sourceforge.net/DTD/sodipodi-0.dtd"
   xmlns="http://www.w3.org/2000/svg"
   xmlns:svg="http://www.w3.org/2000/svg">
  <defs
     id="defs6" />
  <sodipodi:namedview
     id="namedview4"
     pagecolor="#ffffff"
     bordercolor="#000000"
     borderopacity="0.25"
     inkscape:showpageshadow="2"
     inkscape:pageopacity="0.0"
     inkscape:pagecheckerboard="0"
     inkscape:deskcolor="#d1d1d1" />
  <g
     id="g8"
     inkscape:groupmode="layer"
     inkscape:label="ink_ext_XXXXXX"
     transform="matrix(1.3333333,0,0,-1.3333333,0,568)">
    <g
       id="g10"
       transform="scale(0.1)">
      <path
         d="M 7.22266,750.641 266.121,1043.07 c 33.008,-79.215 85.797,-142.168 158.414,-188.847 73.086,-46.211 153.824,-69.551 243.156,-69.551 109.157,0 195.45,25.879 258.922,77.144 63.45,51.789 94.937,121.344 94.937,208.154 0,102.54 -105.597,205.1 -316.792,308.16 l -161.949,80.21 c -188.352,96.95 -319.832,193.93 -393.942,289.89 -74.6326,96.45 -111.7029,209.15 -111.7029,339.11 0,179.71 71.0699,326.93 213.2149,442.7 317.973,256.85 867.781,249 1118.781,-92.66 l -245.07,-283.02 c -31.46,61.43 -75.14,108.13 -129.965,140.62 -54.832,31.98 -120.32,48.22 -195.453,48.22 -92.895,0 -167.527,-22.84 -223.875,-68.53 -55.852,-45.68 -83.777,-105.59 -83.777,-179.71 0,-114.24 112.199,-219.31 336.078,-315.27 l 102.554,-44.67 c 176.618,-79.71 309.858,-171.32 399.688,-274.38 l -161.4,581.25 c 146.78,-40.03 293.56,-80.05 440.31,-120.08 90.06,-281.88 180.13,-563.75 270.19,-845.6 509,1822.96 1710.26,2583.06 2887.04,3177.24 26.67,0 53.36,0 80.06,0 -802.93,-446.62 -1446.76,-999.34 -1927.96,-1660.43 154.97,71.41 329,107.09 521.86,107.09 176.14,0 338.61,-37.07 486.34,-111.71 147.72,-74.11 279.72,-185.28 397.01,-333.03 l -313.76,-232 c -77.67,96.98 -159.9,167.53 -247.24,210.7 -87.32,43.14 -186.81,64.47 -299.01,64.47 -212.72,0 -384.3,-67.01 -514.26,-201.56 -129.97,-134.52 -194.96,-313.23 -194.96,-536.08 0,-220.34 64.47,-398.03 193.93,-533.07 129.47,-135.545 298.51,-203.08 506.67,-203.08 150.76,0 274.12,35.547 370.08,107.145 96.45,71.065 144.68,165.485 144.68,282.235 V 1238 h -523.9 v 383.8 H 4437 l 3.04,-41.62 1.52,-68.53 c 0,-325.94 -92.9,-590.42 -279.2,-792.47 -186.84,-202.578 -427.48,-303.594 -722.92,-303.594 -338.12,0 -616.83,107.617 -836.14,323.371 C 2414.53,925.105 2306.99,1154.7 2281.03,1427.45 2109.36,988.453 1989.91,514.637 1923.47,5.45313 c -63.37,0 -126.74,0 -190.13,0 L 1464.56,973.52 C 1442.87,822.863 1375.83,698.063 1263.19,599.355 1124.09,477.02 936.754,415.586 701.719,415.586 534.191,415.586 391.523,444.008 273.25,501.379 155.469,558.227 66.6094,641.504 7.22266,750.641"
         style="fill:#231f20;fill-opacity:1;fill-rule:nonzero;stroke:none"
         id="path12" />
    </g>
  </g>
</svg>
